<svg id="lock" xmlns="http://www.w3.org/2000/svg" width="13" height="15" fill="none"><path fill="#000" d="M10.8 6.6V3.8c0-1-.4-2-1.2-2.7C8.7.4 7.6 0 6.5 0s-2.2.4-3 1.1c-.9.7-1.3 1.7-1.3 2.6v2.9c-.6 0-1.2.2-1.6.5-.4.4-.6.8-.6 1.3v4.7c0 .5.2 1 .6 1.4.4.3 1 .5 1.6.5h8.6c.6 0 1.2-.2 1.6-.6.4-.3.6-.8.6-1.3V8.4c0-.5-.2-1-.6-1.3-.4-.3-1-.5-1.6-.5ZM7.1 11v1.6s0 .2-.2.3l-.4.1-.3-.1a.4.4 0 0 1-.2-.3V11a1 1 0 0 1-.4-.3.8.8 0 0 1-.2-.5V10l.3-.3.3-.2a1.2 1.2 0 0 1 1.2 0l.3.4.1.3v.2l-.1.5a1 1 0 0 1-.4.3Zm1.6-4.5H4.3V3.8c0-.5.3-1 .7-1.3.4-.3 1-.5 1.5-.5.6 0 1 .2 1.5.5.4.3.6.8.7 1.3v2.8Z"/></svg>
