<svg id="logo" xmlns="http://www.w3.org/2000/svg" width="371" height="155" fill="none"><path fill="#fff" d="M120.4 11.6C127.5 9 128 0 121 0c-2 0-4.3 1.4-5.9 4.2L105.4 21a13 13 0 0 1-1.3 2c-2.5-3.4-1.8-8.5 1.7-10.8l-1.4-1.8c-7.5 4.8-5.3 18.7 7.2 18.7 10.7 0 15.6-12.9 8.8-17.5Zm-8.9 14.7c-1.8 0-3.5-.3-5.1-1.2a18 18 0 0 0 1.8-2.6l6-10.5 1 .1c8.3 1.8 5 14.2-3.7 14.2Zm3.9-16.4 2.9-5c2.6-4.5 6-1.9 4.1 1.5-1.4 2.6-3.4 3.4-7 3.5Z"/><path fill="#fff" d="m260.3 19.2-.2.3c-1.8 2.2-4 4-6.6 5 .6-.8 1-1.9 1.5-2.6l4-6.8c3.3-5.8-2.1-7.7-5.7-4.4l.7-1.2h-3.6l-5.6 9.7-.2.3a7.7 7.7 0 0 1-5.4 2.7l3.4-5.9c2.1-3.7.1-7.3-3.2-7.3-2.8 0-5 1-7 4.7l-1.7 3-1.5 2.5-.2.3c-2.6 3-5 5.4-6.7 5.4-.8 0-1.2-.6-.4-2l5.2-9.2c1.5-2.7 0-4.7-2-4.7-1.5 0-3.1.9-5 2.8l5.7-10h-3.5l-10 17.4-.2.3a22.2 22.2 0 0 1-4.2 3.9c1.1-3.4.9-8.7 3-13.3l-2.6-1.5c-1.5 2-4.7 6.8-8 10.6l-.2.3c-2.6 3-5 5.4-6.7 5.4-.8 0-1.2-.6-.4-2l3.6-6.4c1.2-2.1.7-3.4-.5-4.8l-2-2.5a1.4 1.4 0 0 1 0-2h.2L192.4 5c-2 1.8-2.2 3.9-1 5.5l.4.5c-1.6 2.2-3.7 5.3-6 8l-.3.3c-2.6 3-5.9 5.4-8.4 5.4-2.2 0-3.5-1.3-1.8-4.3l.3-.6c2.3 1 6.6.5 9.3-4.1l.5-1c2-3.3.1-5.8-2.8-5.8a7.5 7.5 0 0 0-6.7 4.2l-3.5 6-.2.3a7.6 7.6 0 0 1-5.4 2.7l3.4-5.9a8.7 8.7 0 0 0 1.3-4.1 3 3 0 0 0-1.7-3 3 3 0 0 0-1-.3h-.5c-.9 0-1.7.3-2.4.8l4.6-7.9h-3.7l-10 17.4-.2.3c-2.5 3-5 5.4-6.6 5.4-.8 0-1.3-.6-.4-2l3.5-6.4c1.3-2.2.7-3.4-.5-4.8l-2-2.5a1.4 1.4 0 0 1 0-2l.2-.1-1.8-2c-2 1.8-2.2 3.8-1 5.5l.4.4c-1.6 2.3-3.8 5.3-6 8.1l-.3.3c-2.6 3-5 5.4-6.7 5.4-.8 0-1.2-.5-.4-2l5.8-10.2h-2A3.8 3.8 0 0 0 135 9c-2 0-4.6 1.5-6.1 4.2l-5 8.7c-1.5 2.7-.5 5.1 2.4 5.1 1.5 0 3.2-.9 5-2.3.1 1.4 1.2 2.3 3 2.3 3 0 6.4-3.2 9.4-6.6 1.7-2 3-3.8 5.9-7.7l.5.5a1.8 1.8 0 0 1 .2 2l-3.8 6.7c-1.5 2.7-.5 5.1 2.4 5.1 2 0 4.4-1.6 6.6-3.7 0 2.5 1.8 3.9 4.1 3.9a7.9 7.9 0 0 0 6-3.4h.8c1.7 0 3.3-.5 4.8-1.4-.2 2.6 1.7 4.6 4.8 4.6 4 0 8-3.2 11-6.7 1.8-2 3-3.8 6-7.7l.5.6a1.8 1.8 0 0 1 .2 2l-3.8 6.6c-1.5 2.7-.5 5.1 2.4 5.1 3 0 6.4-3.1 9.3-6.6 2-2.4 3.9-4.9 5.1-6.6-1.4 3.8-.6 10.5-4 10.5A2 2 0 0 1 201 23l-2.2 1.1a4 4 0 0 0 4 3l1-.1c2-.4 4-1.2 5.5-2.4l-1.2 2.1h3.6l5.5-9.5c5.5-7 7.9-6 6.3-3.4l-4.6 8.1c-1.5 2.7-.4 5.1 2.4 5.1 2.1 0 4.4-1.6 6.6-3.7 0 4.6 6.3 5.5 10.2.6h.8c1.3 0 2.6-.4 3.8-1l-6.5 11.4h3.6l10.7-18.7c4-5.5 6.5-3.5 5.6-1.9l-5.4 9.4a1.4 1.4 0 0 1-1.3 1 1.4 1.4 0 0 1-1.3-1l-2 1a4 4 0 0 0 4 3h.1c5.2-.1 8.6-3.3 11.5-6.7a2.3 2.3 0 0 0-1.4-1.2Zm-81.3-5c2-3.6 5.7-3 3.5.7l-.5 1c-1.7 2.9-4 2.8-5.3 2.3l2.3-4Zm-45.8 5.7c-2.2 3.4-4.3 5-5.8 5-.8 0-1.3-.5-.4-2l5-8.8c2-3.3 5.7-2.5 4 .8l-2.8 5Zm26.9 4.9a1.3 1.3 0 0 1-1.4-1.4c0-.7.2-1.3.6-1.9l1.2-2.3a5.4 5.4 0 0 0 2.3 3.8 3.4 3.4 0 0 1-2.7 1.7Zm3.7-3.5a3.9 3.9 0 0 1-1.5-3.3c0-2.6 2.4-6.7 4.5-6.7a1.4 1.4 0 0 1 1.2.8l.1.5v.2c0 .8-.2 1.5-.6 2.2l-3.7 6.3Zm73.4-1.8h-.2a2.1 2.1 0 0 0-2.1 2.1c0 .4.1.9.3 1.2v.1c-1.6 2.9-5.7 2.4-3.6-1.4l4.4-7.7c2.5-4.3 6-2.6 3.8 1.1l-2.6 4.6ZM0 74.2l5.7-5.8 5.8 5.8L5.7 80 0 74.2Zm353.5 0 5.7-5.8 5.8 5.8-5.7 5.8-5.8-5.8Z"/><path fill="#636466" d="M47 74.4h2V66h3.4V64H47v10.5ZM62 76V63a4.6 4.6 0 0 0-2.6-4c.3.5.5 1.2.5 2v12.8a4.6 4.6 0 0 1-1.7 3.5 5.3 5.3 0 0 1 1.7 3.8v14.3c0 1.2-.5 2.4-1.4 3.2-.9 1-2 1.4-3.3 1.4H41.7v2h15.7a4.6 4.6 0 0 0 4.6-4.5V83.3a5.3 5.3 0 0 0-1.7-3.8A4.5 4.5 0 0 0 62 76Z"/><path fill="#636466" d="M47 92.5h2v-8.4h3.4v-2.2H47v10.6Zm33.1 0h2.1V66h3.3V64h-5.4v28.6Z"/><path fill="#636466" d="M92.5 59c.3.6.5 1.3.5 2v34.5a4.7 4.7 0 0 1-4.6 4.6h-11c-.8 0-1.5-.2-2-.5a4.6 4.6 0 0 0 4 2.6h11.1a4.6 4.6 0 0 0 4.6-4.6V63a4.6 4.6 0 0 0-2.6-4Zm20.8 15.4h2V66h3.4V64h-5.4v10.5Zm12.3 9.2a4.5 4.5 0 0 0 2.6-4.2V63.1a4.6 4.6 0 0 0-2.6-4.1c.3.6.5 1.3.5 2v16.4a4.5 4.5 0 0 1-2.6 4l3.1 18.7H121l.4 2h7.4l-3.1-18.5Zm-9.5-1.7h-2.8V100H108v2.1h7.4V84.1h1l-.3-2.2Zm29.4 10.6h2V66h3.3V64h-5.3v28.6Z"/><path fill="#636466" d="M157.8 59c.4.6.5 1.3.5 2v34.5a4.7 4.7 0 0 1-4.6 4.6h-11.1c-.7 0-1.4-.2-2-.5a4.6 4.6 0 0 0 4 2.6h11.2a4.6 4.6 0 0 0 4.6-4.6V63a4.6 4.6 0 0 0-2.6-4Zm20.8 33.5h2.1V66h3.3V64h-5.4v28.6Z"/><path fill="#636466" d="M191 59c.3.6.5 1.3.5 2v34.5c0 1.2-.5 2.4-1.4 3.2-.8.9-2 1.4-3.2 1.4h-13.6v2.1H189c1.2 0 2.3-.5 3.2-1.4.9-.8 1.3-2 1.4-3.2V63a4.7 4.7 0 0 0-2.6-4Zm21.1-.5v41.6h-5.3v2h7.4V58.6h-2Zm33 0v41.6h-5.9l.6 2h7.4V58.6h-2ZM232.4 81v19H227v2.2h7.4V88.3l-2.1-7.3Zm32.4 3h6.1v-2h-8.2c-.7 0-1.4-.2-2-.6a4.6 4.6 0 0 0 4 2.7Zm2.8 2.9-2 .4v5.2h2V87ZM277.8 59c.3.6.5 1.3.5 2V70l-5.4 1.3v2.6l7.5-1.8v-8.9a4.6 4.6 0 0 0-2.6-4Z"/><path fill="#636466" d="M277.8 77c.3.7.5 1.4.5 2v16.5a4.7 4.7 0 0 1-4.6 4.6h-11.1c-.7 0-1.4-.2-2-.5a4.6 4.6 0 0 0 4 2.6h11.2c1.2 0 2.4-.5 3.2-1.4.9-.8 1.4-2 1.4-3.2V81.2a4.6 4.6 0 0 0-2.6-4.2ZM265.4 64v10.5h2.1V66h3.3V64h-5.4Zm33.9 18h-.7v18.2h-5.4v2.1h7.5V86.5l-1.4-4.6Zm15.2-23.4h-2.8l-6.2 19.7 6.9 21.9h-6l.5 1.8.1.3h7.5l-7-21.9 7-21.8Zm17.4 0v41.6h-5.3v2h7.4V58.6h-2Z"/><path fill="#fff" d="M168.6 125.5h1.4c5.5.3 9.8 1.7 12.5 4.8 2.7-3 7-4.6 12.5-4.8h1.3c12.2.8 17.7 9.6 27.5 13.3 1.5.7 3.1 1 4.8 1 2.5-.2 4-2.8 3.7-5.6-.3-3-3.3-5.7-6.6-4.2-.4.2-.8.4-1.1.8-.3.2-.6.8-1.2.6-.6-.5 0-1.3.3-1.7a6 6 0 0 1 6-3c5.7.4 10.8 5.4 10 13-2 11.2-12.2 14.3-24.3 15.3h-4a48.3 48.3 0 0 1-28.9-11.1 49 49 0 0 1-29 11.1h-3.9c-12.2-1-22.5-4-24.3-15.7-.7-8.2 4.2-12.3 9.9-12.7a6 6 0 0 1 6.1 3c.3.5.8 1.2.3 1.8-.6 0-.9-.4-1.1-.6a4 4 0 0 0-2.9-1.3c-3.8-.1-6 4.2-4.5 7.7a4.4 4.4 0 0 0 3.4 2.6c1.6 0 3.3-.4 4.8-1a24 24 0 0 0 3.8-2c7.4-4.3 13.2-10.4 23.5-11.3Z"/><path fill="#636466" d="m363.2 84 5.7-5.8 2.1 2.1-5.7 5.8-2.1-2.1ZM9.7 84l5.7-5.8 2.1 2.1-5.7 5.8L9.7 84Z"/><path fill="#fff" d="M55.9 69.9a4.5 4.5 0 0 1-1.7 3.5 5.3 5.3 0 0 1 1.7 3.8v14.2a4.7 4.7 0 0 1-4.6 4.7H35.6V52.4h15.7c1.2 0 2.4.5 3.2 1.4.9.8 1.4 2 1.4 3.2V70Zm-7.5-10H43v10.5h5.4V60Zm0 18H43v10.6h5.4V78Zm36-25.5A4.7 4.7 0 0 1 89 57v34.5a4.7 4.7 0 0 1-4.5 4.6H73.3c-1.2 0-2.4-.5-3.2-1.4-.9-.8-1.4-2-1.4-3.2V57c0-1.2.5-2.4 1.4-3.3.8-.8 2-1.3 3.2-1.3h11.2Zm-2.9 7.5h-5.3v28.6h5.4V60ZM115.2 96l-3-18.2h-2.9v18.2H102V52.4h15.7a4.5 4.5 0 0 1 4.2 2.9c.2.5.3 1.1.3 1.7v16.4a4.6 4.6 0 0 1-2.6 4l3 18.7h-7.3Zm-.5-36.2h-5.4v10.5h5.4V60Zm35-7.5c1.3 0 2.4.5 3.3 1.4.9.8 1.3 2 1.3 3.2v34.5a4.7 4.7 0 0 1-4.5 4.6h-11.2a4.6 4.6 0 0 1-4.5-4.6V57a4.6 4.6 0 0 1 4.5-4.6h11.2Zm-2.8 7.5h-5.4v28.6h5.4V60Zm36-7.5a4.7 4.7 0 0 1 4.6 4.6v34.5a4.7 4.7 0 0 1-4.6 4.6h-15.7V52.4H183Zm-2.9 7.5h-5.4v28.6h5.4V60Zm20.7-7.5h7.5v43.7h-7.5V52.4Zm40.5 0v43.7h-7.4L228.3 77v19H221V52.5h7.4l5.4 17.9V52.4h7.5Zm28.6 18c1.2 0 2.3.5 3.2 1.4.8.9 1.3 2 1.3 3.2v16.5a4.7 4.7 0 0 1-4.5 4.6h-11.2a4.7 4.7 0 0 1-4.6-4.6v-9l7.5-1.8v7.8h5.4V78h-8.3a4.5 4.5 0 0 1-4.2-2.8l-.3-1.8V57c0-1.2.4-2.4 1.3-3.2.9-1 2-1.4 3.2-1.4h11.2c1.2 0 2.3.5 3.2 1.4.9.8 1.3 2 1.4 3.2v8.8l-7.5 1.8v-7.7h-5.4v10.5h8.3Zm31.7 3.8 7 21.9h-7.6v-.3L295.3 78h-.7v18.2h-7.4V52.4h7.4v18h.6l5.7-18h7.6l-7 21.8Zm19-21.8h7.5v43.7h-7.4V52.4Z"/></svg>
