<svg xmlns="http://www.w3.org/2000/svg" width="111" height="24" fill="none"><path fill="#fff" d="M13.9 8c5-1.6 5.3-8 .4-8a5 5 0 0 0-4 3L3.7 14.5l-1 1.5A5.5 5.5 0 0 1 4 8.6L3 7.1c-5.1 3.4-3.6 13 5 13 7.3 0 10.7-9 6-12.1Zm-6 10.4a7 7 0 0 1-3.6-1l1.2-1.7 4.1-7.3h.7c5.8 1.3 3.5 10-2.5 10Zm2.6-11.5 2-3.5c1.7-3.2 4-1.3 2.8 1C14.3 6.3 13 7 10.5 7Z"/><path fill="#fff" d="m110 13.4-.2.2a11.6 11.6 0 0 1-4.4 3.5l1-1.9 2.7-4.7c2.3-4-1.5-5.4-4-3.1l.5-.9h-2.4l-3.8 6.8-.2.2a5.3 5.3 0 0 1-3.7 1.9l2.3-4.1c1.5-2.6.1-5.1-2.2-5.1-1.9 0-3.3.8-4.8 3.3l-1.2 2.1-1 1.8v.1c-1.9 2.2-3.6 3.9-4.7 3.9-.5 0-.8-.4-.2-1.4l3.5-6.4c1-1.9 0-3.3-1.3-3.3a5 5 0 0 0-3.4 2l3.9-7H84l-7 12.1v.2c-1 1-2 2-3 2.7.7-2.4.6-6 2-9.3l-1.8-1c-1 1.4-3.2 4.7-5.4 7.4l-.2.2c-1.8 2-3.5 3.7-4.6 3.7-.5 0-.8-.4-.3-1.4l2.5-4.4a2.6 2.6 0 0 0-.3-3.3l-1.4-1.7a1 1 0 0 1 0-1.2s0-.2.2-.3l-1.3-1.4c-1.4 1.3-1.5 2.7-.6 3.9l.2.3-4.2 5.6-.2.2c-1.7 2-4 3.7-5.7 3.7-1.5 0-2.4-1-1.3-3l.2-.4c1.6.7 4.6.4 6.4-2.9l.4-.6c1.3-2.3 0-4.1-2-4.1a5.1 5.1 0 0 0-4.6 3l-2.3 4.1-.2.2a5.2 5.2 0 0 1-3.7 1.8l2.3-4c.5-1 .8-2 .9-3a2.2 2.2 0 0 0-.5-1.5 2 2 0 0 0-1.5-.7h-.2c-.6 0-1.1.2-1.6.6l3.1-5.6h-2.5L39 13.4l-.1.2c-1.9 2-3.6 3.8-4.7 3.8-.5 0-.8-.4-.2-1.4l2.4-4.4a2.6 2.6 0 0 0-.3-3.4l-1.4-1.7a1 1 0 0 1-.1-1.2l.2-.3-1.3-1.4C32.2 4.9 32 6.3 33 7.5l.2.3c-1 1.5-2.5 3.6-4.1 5.6l-.2.2c-1.8 2-3.6 3.8-4.6 3.8-.6 0-.9-.4-.3-1.4l4-7h-1.5A2.5 2.5 0 0 0 24 6.4a5.4 5.4 0 0 0-4.3 2.8l-3.4 6.1c-1 2-.3 3.6 1.7 3.6a6 6 0 0 0 3.4-1.6c0 .5.3 1 .7 1.2.4.3 1 .5 1.4.4 2 0 4.4-2.2 6.4-4.6 1.2-1.4 2-2.7 4-5.4l.3.5a1.2 1.2 0 0 1 .2 1.4l-2.6 4.5c-1 2-.3 3.6 1.7 3.6 1.4 0 3-1 4.5-2.6 0 .7.2 1.4.7 2 .5.4 1.1.7 1.8.7h.3a5.3 5.3 0 0 0 4.2-2.3h.5c1.2 0 2.3-.4 3.3-1-.1 1.8 1.2 3.2 3.3 3.2 2.8 0 5.6-2.3 7.6-4.7 1.2-1.4 2.1-2.6 4-5.4l.4.4a1.2 1.2 0 0 1 .1 1.5l-2.6 4.6c-1 1.8-.3 3.6 1.7 3.6s4.4-2.3 6.4-4.7c1.4-1.6 2.6-3.4 3.5-4.6-1 2.6-.4 7.3-2.8 7.3-.2 0-.5 0-.7-.3-.2-.1-.3-.3-.4-.6l-1.6.8c.2.6.6 1.2 1 1.5.5.4 1.1.6 1.7.6h.7c1.5-.3 2.8-.9 4-1.7l-1 1.5h2.6l3.7-6.7c3.7-4.8 5.4-4.2 4.3-2.4l-3.2 5.7c-1 1.9-.3 3.6 1.7 3.6 1.5 0 3-1 4.5-2.6 0 3.2 4.4 3.9 7 .4h.6c1 0 1.9-.2 2.7-.6L93.5 24H96l7.4-13c2.6-3.8 4.4-2.5 3.7-1.3l-3.7 6.5c0 .2-.2.3-.4.4a1 1 0 0 1-1.4-.4l-1.3.7c.1.6.5 1.1 1 1.5.4.4 1 .6 1.6.5h.2c3.5 0 5.9-2.2 7.9-4.6a1.6 1.6 0 0 0-1-1ZM54.1 9.9c1.5-2.5 4-2 2.5.5l-.4.6c-1.1 2-2.7 2-3.6 1.7L54 9.9Zm-31.4 4c-1.5 2.3-3 3.4-4 3.4-.6 0-.9-.3-.3-1.3l3.4-6.2c1.3-2.3 4-1.7 2.7.6l-1.8 3.4Zm18.5 3.3a.9.9 0 0 1-.7-.2 1 1 0 0 1-.4-.7c0-.5.2-1 .5-1.3l.9-1.6a3.8 3.8 0 0 0 1.5 2.7 2.3 2.3 0 0 1-1.8 1.1Zm2.5-2.4a2.7 2.7 0 0 1-1-2.3c0-1.8 1.7-4.7 3.1-4.7a1 1 0 0 1 .7.3 1 1 0 0 1 .2.7V9c0 .6-.2 1-.5 1.5l-2.5 4.4Zm50.5-1.3H94c-.4 0-.7.2-1 .5-.3.3-.4.6-.4 1 0 .3 0 .6.2.9-1.1 2-4 1.6-2.5-1l1.9-3.3 1.2-2c1.7-3 4-1.8 2.6.8l-1.8 3.1Z"/></svg>